<svg xmlns="http://www.w3.org/2000/svg" viewBox="0 0 844.8 383.83"><g id="Layer_2" data-name="Layer 2"><g id="Layer_1-2" data-name="Layer 1"><path d="M547.76,29.13c.71-1.73,1.82-1.58,2.9-.88,3.4,2.19,7.3,3.32,10.87,5.16A16.31,16.31,0,0,0,570,35.62c.81,0,1.89-.27,2.25.83.31.93-.31,1.67-.92,2.31s-1.19,1.08-1.77,1.64c-.3.28-.56.65-.28,1.06a.73.73,0,0,0,1.08.13c1.9-1.36,2.35-.26,2.67,1.43a17.31,17.31,0,0,1,.47,3.78,8,8,0,0,0,.93,4.47,2.66,2.66,0,0,1,.44,1.32c-.21,3.77,1.37,7.2,2.07,10.79.91,4.63,2.49,9.14,3.81,13.69.94,3.28,1.92,6.54,2.9,9.8.16.51.24,1.16.6,1.47,2,1.72,1.87,4.89,5,6.32-4.54.59-6.71,3.6-9.19,6-5.92,5.73-11.86,11.45-17.3,17.64-4.21,4.78-8.42,9.56-12.41,14.52a54.93,54.93,0,0,0-6.77,10,17.11,17.11,0,0,1-4.15,5.17,229.72,229.72,0,0,0-25.86,28.57c-3.73,4.82-7.47,9.63-10.88,14.68a2.36,2.36,0,0,1-2.66.9l-12.31-2a3.44,3.44,0,0,0-2.37,0c-1.88,1.14-3.44.22-5.28-.24-2.6-.65-5.42-2.18-7.93-1.32s-4-.09-5.88-1.36-4.26-1.29-6.43-1.31c-7.17-.07-13.81-2.59-20.6-4.31-7-1.77-13.77-4.46-21.09-4.79-7.83-.36-15.53-1.88-23.2-3.25a67.69,67.69,0,0,1-16.55-4.69A8.4,8.4,0,0,1,376,167.3a4.19,4.19,0,0,0-4.42-1.21,1.76,1.76,0,0,1-2.1-.66,15.9,15.9,0,0,0-9.27-5.45,59.69,59.69,0,0,0-15.22-.56c-1.17.07-3,.15-3.41-.47-.61-1,.63-2.28,1.3-3.32a14.2,14.2,0,0,0,2.29-6.37c.05-.52.18-1.17-.39-1.46s-.74.38-1,.72c-.67.9-1.41.67-2.07.06a27.28,27.28,0,0,1-6.36-9.59,18.21,18.21,0,0,1-1.47-8.9,6.41,6.41,0,0,1,.13-1.6c1.51-4,.8-8-.12-12-.4-1.72.26-2.6,2-3a20,20,0,0,0,6.24-2.16,3.8,3.8,0,0,1,1.94-.39,37.92,37.92,0,0,0,7.11-1.07,18.32,18.32,0,0,1,9.15.17,8.74,8.74,0,0,0,2.31.66,18.5,18.5,0,0,1,8.07,2c4.66,2.24,9.81,2.58,14.79,3.59,5.91,1.21,11.89,2.15,17.34,5,3.67,1.9,7.77,2,11.73,2.47,5.85.74,11.74,1,17.62,1.48a26.43,26.43,0,0,1,10.66,2.64,1.6,1.6,0,0,0,.95.25c3-.53,5.39,1.36,8.06,2.08a12.79,12.79,0,0,0,2.95.54c2.05,0,2.89-.83,3.59-2.87,1.44-4.19,1.38-8.74,3.32-12.74,1.28-2.65,2.71-5.23,4.21-7.75s3.2-4.78,4.68-7.25,3.82-3.79,5.94-5.32a33.36,33.36,0,0,0,10.2-12.25c2-3.92,4.56-6.48,8.89-7.42,6.15-1.35,10-5.84,13.92-10.36,5.22-6.07,9.46-12.8,13.75-19.53a94.27,94.27,0,0,1,7.55-9.65,91.13,91.13,0,0,0,6.83-9.19,7.71,7.71,0,0,0,.75-1.42c.88-2.25.85-2.22,2.76-.89a27,27,0,0,0,2.94,1.74C545.6,26.54,547.11,27.19,547.76,29.13ZM455.05,175.71a5.41,5.41,0,0,1,1.45.61c2.65,2.18,6,2.46,9.1,3.56a2,2,0,0,0,2.26-.3c.74-.8.26-1.6-.08-2.42-.81-2-1.48-4-2.36-6-2.22-4.89-1.88-10.31-3.1-15.42-1-4.26-2.43-8.63-2.43-13.15a6.42,6.42,0,0,0-.45-1.95c-.54-1.65-1.54-2.09-3.26-1.53-4.13,1.34-8,3.21-12.1,4.72a48.78,48.78,0,0,1-4.84,1.81,82.23,82.23,0,0,0-15.14,5.71c-1.2.57-2.25,1.58-1.6,2.82,1.23,2.38,1.08,5.09,2.25,7.46,1.48,3,2.76,6.07,4.25,9.05a5.24,5.24,0,0,0,4.38,3.13C440.6,174.37,447.7,176.29,455.05,175.71ZM563.29,56.63a4.89,4.89,0,0,0-.88-4.27,5.93,5.93,0,0,1-1.33-4.09c0-1.13.13-2.27.19-3.4a.78.78,0,0,0-.4-.85.53.53,0,0,0-.76.42c-.2,2.29-2.28,3.2-3.41,4.79-1.83,2.56-2.91,5.79-6.43,6.74-.27.07-.44.49-.66.75A167,167,0,0,0,527.71,89c-1.27,2.47-1.22,5.74.37,6.93a4.58,4.58,0,0,1,1.76,2.54c.49,1.67,1.68,2.69,3.49,2.21a82.23,82.23,0,0,0,9-2.76c1.4-.55,3-.57,4.19-1.78a120.15,120.15,0,0,0,11.6-13.58c.75-1.09,1.25-2.1.42-3.29s-.46-1.86.5-2.73a9.53,9.53,0,0,0,3.23-7.08c.15-4.2-1-8.24-1.16-12.39,0-.91-.3-2.29.67-2.51,1.22-.27.51,1.38,1.13,1.92A2.12,2.12,0,0,0,563.29,56.63Zm-198,72.45a12.65,12.65,0,0,0,1.67,7.31,9.77,9.77,0,0,1,1.65,4.7c-.05,4,2.16,7.41,2.51,11.28a8,8,0,0,0,1,2.62,2.12,2.12,0,0,0,2.69,1.2c3.24-1,6.5-2.05,9.66-3.29a42.52,42.52,0,0,1,12.25-2.71c2.75-.23,3.64-1.27,2.83-3.84-.68-2.18-2.63-4.12-1.32-6.7.07-.14,0-.4-.11-.58-1.5-3.62-1.76-7.54-2.79-11.27-.35-1.26-.94-2.09-2.3-2.08a72.29,72.29,0,0,1-13.91-1.64c-3.09-.59-6.24-.88-9.29-1.63-2.44-.6-4.43.44-4.67,3A27.36,27.36,0,0,0,365.28,129.08Zm141.4,9a4.39,4.39,0,0,1,1.5-3.15,5.41,5.41,0,0,0,1.35-4.45c-.23-3.1-1.6-5.94-2.08-9-.15-1-.9-1.21-1.83-.63a17,17,0,0,1-6.15,2.27,8.72,8.72,0,0,0-5.88,3.85c-1.42,2-2.91,4-4.28,6.08-2.88,4.34-5.21,8.82-4.44,14.36.28,2,.22,4,1,5.9a7.64,7.64,0,0,1,.56,3.35,13.94,13.94,0,0,0,1.5,6.79c1,2,1.66,2.12,3.08.38,4-4.85,6.78-10.41,10.18-15.61.8-1.22,1-3.88,3.7-3.17.16,0,.5-.39.69-.65,1.27-1.79,2.58-3.56,3.77-5.41a12.4,12.4,0,0,0,2.06-4.3C509.57,135.92,508.1,136.87,506.68,138Zm-76.38-8.13a18.36,18.36,0,0,0-4.89.34,2.06,2.06,0,0,0-1.86,1.57c-.54,1.86-1.16,3.7-1.61,5.58-.52,2.24.33,2.87,2.55,2.36,3.86-.9,7.27-3,11.06-4.06,2.25-.66,4.61-.79,6.78-1.71.72-.3,1.72-.36,1.57-1.46a1.65,1.65,0,0,0-1.77-1.35C438.1,131.17,434.24,129.74,430.3,129.91ZM402,163.36h.08a24.43,24.43,0,0,0-.24-2.59c-.19-1-.87-1.67-1.87-1.36-2.41.74-4.79,1.59-7.13,2.51a1.65,1.65,0,0,0-.95,1.85,1.16,1.16,0,0,0,1.34,1c2.28-.15,4.08,1.12,6,1.93s2.59.34,2.73-1.7C402.05,164.43,402,163.9,402,163.36ZM560.74,78a2.06,2.06,0,0,0,1.35,2.28c2.41,1,4.88,1.75,6.85,3.6a4.28,4.28,0,0,0,2.56,1.07,1.53,1.53,0,0,0,1.71-1.1,1.35,1.35,0,0,0-.88-1.78,35.22,35.22,0,0,1-9-5.16,1.51,1.51,0,0,0-1.87-.21A1.59,1.59,0,0,0,560.74,78Zm-196.5,39.34c-2.14-.17-3.81,1.1-5.66,1.81a1.49,1.49,0,0,0-.86,1.48.94.94,0,0,0,.83,1c2.29.28,4.62,1,6.74-.67.91-.69,1.69-1.47,1.33-2.66S365.13,117.41,364.24,117.33ZM510.68,81.48c-.73,0-1.47,0-2.2.12-.89.11-1.78.38-1.9,1.44a1.91,1.91,0,0,0,1.54,2.06,9.13,9.13,0,0,0,4.94.28,1.8,1.8,0,0,0,1.47-2.08,1.73,1.73,0,0,0-1.65-1.71C512.15,81.49,511.41,81.51,510.68,81.48Zm-45.05,51.94c1.3,0,2.37-.32,2.87-1.58a1.9,1.9,0,0,0-.31-2.24c-.93-.87-2-.5-3-.13-.31.12-.63.23-.93.37-.9.41-2.09.66-1.87,2s1.39,1.28,2.35,1.5A5.36,5.36,0,0,0,465.63,133.42ZM518,114c1.19,0,1.84-.57,1.85-1.61s-1.93-3.33-3.09-3.26a2.37,2.37,0,0,0-2.28,2.36C514.34,112.88,516.06,114,518,114Zm42.14-74.63c-.23-1.69-.29-3.47-1.74-4.75-.34-.3-.73-.73-1.22-.45s-.27.84-.1,1.25a16.42,16.42,0,0,1,1.19,4.24c.1.64.23,1.5,1.12,1.38S560.08,40.08,560.14,39.41Z"/><path d="M40.3,186.39C67,185.65,97.82,184,97.82,184S110,187.58,116,186.9s26.09-3.71,31.56-4.12,17.89-1.16,24.54-2.83,22-4.39,49.72-11.42,37.65-8.77,51.88-13.85,48.62-16.48,53.94-18c3.33-1,15.17-5.56,23.58-8.88l8.84-3.51-1-1.81s-16.72,7.38-18.78,8-17.87,5.34-22,6.47-25.54,8.79-27.19,9.13-28.71,8.79-32.15,9.84-38.14,10.85-38.14,10.85-22.26,5.43-25.51,6.38-45.47,8.41-45.47,8.41l-19.44.54-8.9-.94-18.79-.43a81.53,81.53,0,0,0-8.64.11c-1.6.31-24.44,2.77-24.44,2.77L60,181.82l-10.2,1.29-8.64.68-10.89,2.58-4.77.91-3.13.59-7.21,1.38L7.87,191.3,0,195.77l1.16,2,8-4.24,7.58-1.6s13.88-3.38,15.44-4A81.73,81.73,0,0,1,40.3,186.39Z"/><path d="M540.94,134.77c22.25,12.34,48.39,26,48.39,26s8.2,8.66,13.43,11,23.3,9.78,28,12.11,15.26,7.77,21.57,9.7,20.29,7.28,46.6,15.28,35.36,11.47,49.62,14.45,48.29,10.82,53.42,12.23c3.21.88,15.27,3.06,23.86,4.57,5.15.91,9,1.57,9,1.57l.08-1.9s-17.48-2.4-19.45-3-17.39-4.53-21.34-5.65-25.42-5.59-26.95-6.13-28-7.12-31.39-8S699,207,699,207s-21-6.59-24.19-7.44S633.25,184,633.25,184L617,175l-6.83-5L595,160.57s-5.66-3.57-7.13-4.11-21.47-9.69-21.47-9.69l-6.94-6-9-3.94L543,133.19l-10.24-3.28-4.38-1.61-2.87-1.06-6.62-2.43-7.06-2-8.73-.37-.09,2.13,8.72.61,7,2.43s13.11,4.12,14.69,4.42S540.94,134.77,540.94,134.77Z"/><path d="M555.8,170.66c20.54,22.2,44.91,47.12,44.91,47.12S607,231.84,612,236.28s22.46,18.75,26.88,23,14.3,14.24,20.59,18.29,20,14.55,46.24,31.39,35.11,23.65,49.77,30.83,49.41,25.39,54.59,28.46c3.24,1.91,15.74,7.51,24.66,11.43,5.33,2.35,9.38,4.1,9.38,4.1l.67-2.69s-18.35-7-20.33-8.23-17.61-10.05-21.58-12.46-26-13.2-27.56-14.29-28.43-15.93-31.83-17.84-37.11-22-37.11-22-20.95-13.74-24.14-15.59S641.59,260,641.59,260l-15-16.18-5.92-8.6L607,218.61s-5.09-6.25-6.54-7.32S579.94,193,579.94,193l-5.76-9.95-8.65-7.48-7-6.77L548.34,162l-4.29-3.2-2.81-2.09-6.48-4.84-7.11-4.25-9.42-2.32-.74,3,9.33,2.66,6.94,4.92s13.06,8.57,14.69,9.33S555.8,170.66,555.8,170.66Z"/><path d="M587.92,41c20.44-7.27,44.24-15,44.24-15s8.7-6.82,13.35-8,20.52-4.43,24.76-5.7,13.83-4.28,19.18-4.75S707,5,729.28,3.05s30.19-3.33,41.89-3S811,.38,815.33.17c2.7-.14,12.5.47,19.47,1,4.18.29,7.33.53,7.33.53l-.47,1.93S827.66,1.92,826,2s-14.53.52-17.85.72-20.95-.29-22.27-.1-23.37.64-26.17.72S728.8,5,728.8,5s-17.89,1.75-20.52,1.87-36.08,6-36.08,6l-14.91,5.3-6.63,3.49-14.25,6a61.9,61.9,0,0,1-6.6,2.48c-1.27.2-19.1,4.78-19.1,4.78l-7,4.4-8,1.87-6.71,2L580.3,44l-3.79.61L574,45l-5.73.91-5.93.34-6.76-1.67.54-2.17L563,43.83l6-.82s11.15-1.09,12.45-1A55.55,55.55,0,0,0,587.92,41Z"/></g></g></svg>