<svg xmlns="http://www.w3.org/2000/svg" viewBox="0 0 255.4 169.04"><g id="Layer_2" data-name="Layer 2"><g id="Layer_1-2" data-name="Layer 1"><path d="M214,6c.7-1.72,1.82-1.57,2.89-.88,3.4,2.19,7.3,3.33,10.87,5.17a16.4,16.4,0,0,0,8.44,2.21c.81-.05,1.89-.27,2.25.82.31.93-.31,1.68-.92,2.32s-1.19,1.08-1.77,1.63c-.29.29-.56.66-.28,1.07a.74.74,0,0,0,1.09.12c1.9-1.35,2.34-.25,2.66,1.44a17.16,17.16,0,0,1,.47,3.78,8.06,8.06,0,0,0,.93,4.46,2.57,2.57,0,0,1,.44,1.33c-.21,3.76,1.37,7.2,2.07,10.78.91,4.64,2.49,9.14,3.81,13.7.94,3.27,1.93,6.54,2.91,9.8.15.51.23,1.16.59,1.46,2,1.73,1.87,4.89,5,6.33-4.54.59-6.71,3.6-9.19,6-5.92,5.73-11.86,11.45-17.3,17.64-4.21,4.78-8.42,9.56-12.41,14.51a54.72,54.72,0,0,0-6.76,10,17.3,17.3,0,0,1-4.16,5.17,231.15,231.15,0,0,0-25.86,28.57c-3.73,4.83-7.46,9.63-10.88,14.69a2.36,2.36,0,0,1-2.66.89q-6.15-1-12.31-2a3.5,3.5,0,0,0-2.37,0c-1.88,1.14-3.44.22-5.28-.24-2.6-.65-5.42-2.18-7.93-1.33s-4-.08-5.88-1.35-4.26-1.3-6.43-1.32c-7.17-.06-13.81-2.58-20.6-4.3-7-1.77-13.77-4.46-21.09-4.8-7.83-.35-15.53-1.87-23.2-3.24a67.69,67.69,0,0,1-16.55-4.69,8.43,8.43,0,0,1-2.33-1.54A4.17,4.17,0,0,0,37.8,143a1.78,1.78,0,0,1-2.11-.67,15.91,15.91,0,0,0-9.27-5.44,59.66,59.66,0,0,0-15.22-.56c-1.17.07-3,.15-3.4-.48-.62-1,.62-2.27,1.3-3.31a14.39,14.39,0,0,0,2.28-6.38c0-.51.18-1.17-.39-1.45s-.74.37-1,.72c-.67.9-1.41.67-2.06.06a27.1,27.1,0,0,1-6.36-9.59A18.12,18.12,0,0,1,.11,107a6,6,0,0,1,.12-1.6c1.51-4,.8-8-.12-12-.39-1.72.27-2.61,2-3a20,20,0,0,0,6.24-2.17,3.92,3.92,0,0,1,1.95-.38,38,38,0,0,0,7.11-1.07,18.28,18.28,0,0,1,9.14.17,8.74,8.74,0,0,0,2.31.66,18.63,18.63,0,0,1,8.07,2c4.66,2.24,9.81,2.59,14.79,3.6,5.91,1.2,11.89,2.15,17.34,5,3.67,1.89,7.77,2,11.73,2.47,5.85.74,11.75,1,17.62,1.48a26.43,26.43,0,0,1,10.66,2.64,1.69,1.69,0,0,0,1,.25c3-.53,5.38,1.36,8.06,2.08a12.1,12.1,0,0,0,2.94.53c2,0,2.9-.83,3.6-2.86,1.43-4.19,1.37-8.74,3.31-12.75,1.29-2.64,2.71-5.22,4.21-7.75s3.2-4.78,4.68-7.24,3.82-3.79,6-5.32A33.51,33.51,0,0,0,153,59.38c2-3.92,4.56-6.48,8.89-7.43,6.15-1.35,10-5.84,13.92-10.35,5.22-6.07,9.46-12.8,13.75-19.53a95.68,95.68,0,0,1,7.55-9.65,92.37,92.37,0,0,0,6.84-9.19,9.63,9.63,0,0,0,.75-1.42c.87-2.25.84-2.23,2.75-.89a29.88,29.88,0,0,0,2.94,1.74C211.78,3.41,213.29,4.06,214,6ZM121.23,152.59a5.28,5.28,0,0,1,1.46.6c2.65,2.18,6,2.46,9.09,3.57a2,2,0,0,0,2.26-.31c.74-.8.26-1.6-.07-2.41-.81-2-1.49-4-2.37-6-2.22-4.88-1.88-10.3-3.1-15.42-1-4.26-2.43-8.62-2.43-13.15a6.49,6.49,0,0,0-.45-2c-.54-1.64-1.54-2.08-3.26-1.52-4.13,1.34-8,3.21-12.09,4.72a49.9,49.9,0,0,1-4.85,1.81,82.19,82.19,0,0,0-15.14,5.7c-1.2.58-2.25,1.59-1.6,2.83,1.23,2.37,1.08,5.09,2.25,7.45,1.48,3,2.76,6.08,4.25,9.05a5.23,5.23,0,0,0,4.38,3.14C106.78,151.24,113.88,153.17,121.23,152.59ZM229.47,33.5a4.83,4.83,0,0,0-.88-4.26,5.92,5.92,0,0,1-1.32-4.09c0-1.14.13-2.27.18-3.41a.79.79,0,0,0-.4-.85.54.54,0,0,0-.76.43c-.2,2.28-2.27,3.19-3.41,4.78-1.83,2.56-2.91,5.8-6.43,6.75-.27.07-.44.49-.65.74a167,167,0,0,0-21.91,32.32c-1.27,2.47-1.22,5.73.37,6.93A4.51,4.51,0,0,1,196,75.37c.5,1.68,1.69,2.69,3.49,2.22a86.84,86.84,0,0,0,9-2.76c1.4-.55,3-.57,4.2-1.79a121,121,0,0,0,11.59-13.57c.75-1.1,1.25-2.1.42-3.29s-.46-1.86.5-2.73a9.55,9.55,0,0,0,3.24-7.08c.14-4.2-1-8.25-1.16-12.39-.05-.92-.31-2.3.66-2.51,1.22-.27.51,1.38,1.14,1.91C229.15,33.42,229.23,33.43,229.47,33.5ZM31.47,106a12.68,12.68,0,0,0,1.66,7.32,9.6,9.6,0,0,1,1.65,4.7c-.05,4,2.17,7.4,2.51,11.28a7.77,7.77,0,0,0,1,2.61,2.09,2.09,0,0,0,2.68,1.2c3.24-1,6.5-2,9.66-3.29a43.26,43.26,0,0,1,12.25-2.71c2.75-.23,3.64-1.27,2.83-3.84-.68-2.17-2.62-4.11-1.32-6.7.07-.14,0-.39-.11-.58-1.5-3.61-1.76-7.53-2.79-11.26-.35-1.27-.94-2.09-2.29-2.08A71.63,71.63,0,0,1,45.29,101c-3.09-.58-6.24-.88-9.28-1.62-2.44-.6-4.44.43-4.68,3A27.31,27.31,0,0,0,31.47,106Zm141.39,9a4.37,4.37,0,0,1,1.5-3.15,5.41,5.41,0,0,0,1.35-4.45c-.23-3.1-1.59-5.95-2.07-9-.16-1-.91-1.21-1.84-.63a16.91,16.91,0,0,1-6.15,2.26,8.79,8.79,0,0,0-5.88,3.85c-1.41,2-2.91,4-4.28,6.08-2.88,4.34-5.21,8.83-4.44,14.37.28,2,.22,4,1,5.89a7.85,7.85,0,0,1,.55,3.36,13.9,13.9,0,0,0,1.5,6.78c1,2,1.67,2.12,3.08.39,3.95-4.85,6.78-10.42,10.19-15.61.79-1.22,1-3.89,3.69-3.18.16,0,.5-.38.69-.65,1.27-1.79,2.59-3.56,3.77-5.41a12.34,12.34,0,0,0,2.06-4.29C175.75,112.8,174.28,113.75,172.86,114.92Zm-76.37-8.13a18.31,18.31,0,0,0-4.89.34,2,2,0,0,0-1.87,1.57c-.54,1.85-1.16,3.69-1.6,5.57-.53,2.25.32,2.88,2.54,2.36,3.86-.89,7.27-2.95,11.06-4.06,2.25-.65,4.61-.78,6.78-1.7.72-.31,1.72-.37,1.57-1.47a1.62,1.62,0,0,0-1.77-1.34C104.28,108.05,100.42,106.61,96.49,106.79ZM68.2,140.24h.08a24.93,24.93,0,0,0-.24-2.59c-.19-1-.87-1.66-1.87-1.35-2.41.74-4.79,1.59-7.13,2.51a1.64,1.64,0,0,0-.95,1.84,1.18,1.18,0,0,0,1.34,1c2.28-.15,4.09,1.11,6.05,1.92s2.58.34,2.72-1.7C68.23,141.31,68.2,140.77,68.2,140.24ZM226.92,54.87a2.06,2.06,0,0,0,1.35,2.28c2.41,1,4.88,1.75,6.85,3.59a4.22,4.22,0,0,0,2.56,1.07,1.53,1.53,0,0,0,1.72-1.1,1.37,1.37,0,0,0-.89-1.78,35.66,35.66,0,0,1-9-5.15,1.48,1.48,0,0,0-1.86-.21A1.58,1.58,0,0,0,226.92,54.87ZM30.42,94.21c-2.13-.17-3.81,1.1-5.66,1.81a1.49,1.49,0,0,0-.85,1.48.93.93,0,0,0,.82,1c2.29.29,4.62,1,6.75-.66.9-.7,1.68-1.47,1.33-2.66S31.31,94.29,30.42,94.21ZM176.86,58.36c-.73,0-1.47,0-2.2.12-.89.11-1.78.38-1.9,1.44A1.91,1.91,0,0,0,174.31,62a9.09,9.09,0,0,0,4.93.27,1.78,1.78,0,0,0,1.47-2.07,1.72,1.72,0,0,0-1.65-1.71C178.33,58.37,177.6,58.39,176.86,58.36Zm-45,51.94c1.29,0,2.36-.33,2.86-1.58a1.9,1.9,0,0,0-.3-2.24c-.94-.88-2-.5-3-.13-.31.11-.63.23-.93.37-.9.4-2.08.66-1.87,2s1.39,1.28,2.35,1.5C131.24,110.27,131.58,110.27,131.82,110.3Zm52.37-19.39c1.18,0,1.83-.56,1.84-1.61S184.1,86,182.94,86a2.37,2.37,0,0,0-2.27,2.36C180.52,89.76,182.24,90.92,184.19,90.91Zm42.13-74.63c-.23-1.68-.29-3.46-1.73-4.74-.35-.3-.74-.73-1.23-.46s-.27.85-.1,1.26a16.46,16.46,0,0,1,1.19,4.23c.1.64.23,1.5,1.12,1.38S226.26,17,226.32,16.28Z"/></g></g></svg>