<svg xmlns="http://www.w3.org/2000/svg" viewBox="0 0 538.3 378.3"><g id="Layer_2" data-name="Layer 2"><g id="Layer_1-2" data-name="Layer 1"><path d="M0,154.4c.1-5.3,3-9.49,4.37-14.13.2-.66.79-1.3.74-1.91-.32-4.27.78-8.36,1.31-12.53.91-7.06.86-14.27,1.19-21.37.48-10.4.09-20.88,1.45-31.23C10.61,61.45,15.48,51,22.61,41.57c2.56-3.39,4.63-7.18,8-9.95a1.46,1.46,0,0,0,.43-.53C34,23.22,41.4,19.12,46.37,13c3.1-3.86,6.52-7.42,8.81-11.86C55.42.63,56,.36,56.42,0c2.73.62,3.22,3.3,4.69,4.92C66.16,10.46,72,15.19,77,20.78,83.5,28.09,89.09,36.13,94.9,44c6.93,9.37,14.9,17.84,23.07,26.13,1.78,1.81,3.69,3.5,5.32,5.43a66.93,66.93,0,0,0,16.59,14c3.55,2.18,6.8,4.76,10.15,7.2,5.17,3.77,10.63,6.59,17.35,6.93,3.58.18,7.09,1.83,10.85,1.31a1.9,1.9,0,0,1,2.13,1.43c2,7.12,7.84,11.54,12.32,16.8,6.63,7.79,14.35,14.67,20.86,22.55,5.47,6.62,10.1,14,14.68,21.25,4.12,6.53,8.91,12.56,13.24,18.93,4.59,6.75,8.61,13.84,13.29,20.52a61.38,61.38,0,0,0,4.74,6.33c2.06,2.28,4.58,1.48,6.54-.11,3.68-3,7.86-5.13,11.89-7.56,6.13-3.7,12.8-6.41,19.26-9.17a145.48,145.48,0,0,1,27.33-8.53c16.95-3.55,34.12-5.45,51.32-7.37,7.76-.86,15.68-.57,23.27-2.36,4.22-1,8.79-1.21,12.55-4.06,6.68-5.06,15.09-5.36,22.69-7.89a43.36,43.36,0,0,1,17.39-1.8c9.3.72,18.67,0,28,1.22,14.06,1.85,28.28,1.05,42.38,2.4,4.47.42,8.92,1,13.38,1.62,2.58.34,2.94,2,1.89,4a30.17,30.17,0,0,1-2.81,4.35c-3.48,4.62-4.12,10.18-5.16,15.56-1.75,9-5.57,17.36-9.79,25.34-2.73,5.17-3,10.31-2.94,15.65a30.11,30.11,0,0,0,2.76,11.73,4.84,4.84,0,0,1,.71,1.93c-.26,7,3.89,12.68,5.53,19.11a13.37,13.37,0,0,0,4.64,7.5c1.7.26,2.39-.91,3.41-1.36,1.86-.83,3.49-.57,4.32,1.41a2.74,2.74,0,0,1-1.73,3.92,19.5,19.5,0,0,1-7,1.56c-5.83-.12-11.44.68-16.68,3.56a23.31,23.31,0,0,1-9.3,2.51c-7.11.59-13.58,3.57-20.48,4.88a3,3,0,0,0-2.62,1.86c1.78,2,4.26,2.77,6.78,3.37q18.79,4.49,37.62,8.88c1.9.44,3.86.62,5.78,1,2.12.45,3.36,1.71,2.65,4s-2.34,3-4.63,2.29c-10.35-3-20.76-5.76-31-9C490.16,301,483,299,475.65,297.46a3.78,3.78,0,0,1-2.13-1c-2.54-3.29-4.81-2.22-7.57-.12-3.3,2.52-6.91,4.89-11.09,1.23a3.74,3.74,0,0,0-2.33-.4c-16.46.45-32.94.4-49.34,2.05a160.59,160.59,0,0,0-17.44,2.51c-3.61.77-7.33.3-11,.93-8.5,1.47-16.55,4.62-25,6.19-8.83,1.64-17.72,3.06-26.45,5.15-6,1.43-11.82,3.86-17.74,5.79-8.55,2.77-17.46,4.14-26,6.9-12.28,4-24.7,7.45-36.69,12.29a21,21,0,0,0-7.49,5.29c-2.06-3-4.48-5-6.79-7.33-.8,4.1,6.53,14.43,11.05,15.17.12,6.08,5.27,10.25,6.71,16.09a7.94,7.94,0,0,0,2.19,3.48,6.32,6.32,0,0,1,1.76,4.39,2,2,0,0,1-1.33,2.18,1.9,1.9,0,0,1-2.16-.72c-1.15-1.44-2.62-2.79-3.25-4.45-2.35-6.15-7.2-10.78-9.65-17a33.13,33.13,0,0,0-8.38-12.32c-2.6,5.38-8.29,6.63-11.73,10.59a6.38,6.38,0,0,1-3.81,2.14,30.36,30.36,0,0,0-13.9,6.55,18,18,0,0,1-3.17,2.08,2.8,2.8,0,0,1-4.15-1.12c-.88-1.53-1.09-3.17.47-4.36a56.9,56.9,0,0,1,15.2-8.51c5.61-2,11.05-4.53,16.51-6.93,1.72-.75,2.94-2.23,2.07-4.16-1-2.16-2.71-.83-4.2-.46-5.79,1.44-10.64,4.92-16,7.36a6.39,6.39,0,0,0-2.6,2.7c-.66,1-1.48,1.84-2.83,1.47a2.37,2.37,0,0,1-1.85-2.62c.68-5.72-3.3-9.3-6-13.45-2.58-3.94-5.21-7.86-7.82-11.77-5-7.48-10.61-14.44-16.19-21.44C153.72,287,139.68,274.3,126,261.31c-4.53-4.3-8.52-9.77-15.07-11.69a2.25,2.25,0,0,1-1.53-2.78c.55-2.68-1.12-4.16-2.61-6-5.47-6.69-11-13.29-17.09-19.46a291.39,291.39,0,0,0-26.85-23.8c-14-11.1-29.46-20.11-43.93-30.54C13.83,163.37,8.32,160.2,3.56,156,2.68,155.21,1.31,155,0,154.4ZM59.38,69.6c-1.16-.48-1.3-1.63-1.86-2.47-2.73-4.12-5.2-8.42-9.2-11.55q-5.18-4-10.12-8.39c-2.27-2-3.8-1.48-5.29.88-1.31,2.07-1.7,4.49-2.65,6.71A55.11,55.11,0,0,0,25.9,76.84c0,7,.67,14.2-2.13,20.76s-6.47,12.66-9.93,18.87c-2.27,4.06-1.22,8,2.52,10.74C22.28,131.65,29,134.79,35.05,139a28,28,0,0,0,13.72,5.16c5.66.49,11.27,2,16.8,3.53,5.94,1.61,11.66,4.1,17.64,5.49,9.13,2.11,17.68,5.68,26.2,9.38,2.8,1.22,5.49,2.58,8.08.19,1.68.22,2.21,2.09,3.83,1.9a1.84,1.84,0,0,0,1.45-1.33c1.72-6,5.16-11,8.66-16,4.46-6.41,4.45-6.57-.28-12.87-5.73-7.65-12.41-14.53-19-21.38-8.48-8.77-17.23-17.32-26.53-25.24C77.82,81.15,70.5,74,62.59,68,61.07,68.12,60.89,69.71,59.38,69.6ZM393.54,247.77c.75,1.83.61,4.16,3.33,5,9.74,3.15,19.38,6.62,29.11,9.82,9.06,3,18.22,5.68,26.72,10.17a55.18,55.18,0,0,0,12,4.38c3.06.78,5.14.17,6-3.26a41.82,41.82,0,0,1,2.51-7.5c3.16-6.92,3.28-14.52,4.56-21.79.83-4.73,2.29-9.64,1.5-14.65a3.53,3.53,0,0,1,.58-1.95c2.91-5.36,2.19-11.4,3.09-17.11.36-2.36.11-4.69,1.47-6.91a3.9,3.9,0,0,0-1.18-5.75l-3.41.77c-1.42-1.76-2-4.51-5-4-5.16.8-10.35.09-15.52.33C439.43,196.24,419.7,198,400,200c-3.87.39-5.8,2.73-6.24,6.55-.69,6-1.89,11.91-3,17.85-.79,4.36-1.52,8.76-2.17,13.15-.38,2.57,0,5.25-1,7.79a2.2,2.2,0,0,0,.64,2.84C390,249,391.33,246.58,393.54,247.77ZM332.8,250.5c-2.37.72-4.24,3.09-6.85,1.42a11.83,11.83,0,0,0-4.56-1.48c-2.37-.4-5-.34-7-1.44-5.2-2.87-10.93-4.12-16.44-6-11-3.68-22.51-5.47-33.29-9.87-2.83-1.15-4.51.87-5.22,3.15-.82,2.64-1.88,5.17-2.74,7.78-3.3,10.13-6.53,20.29-9.76,30.45-3,9.45-4.2,19.28-5.78,29a144.25,144.25,0,0,1-3.18,16.5c-.43,1.5-.94,2.92,1,3.89a3.54,3.54,0,0,0,.94-.13c10.47-4.18,20.75-8.86,31.71-11.73a59,59,0,0,0,8.84-2.9c6.88-3,12.61-8,19.18-11.54,4.75-2.57,9.67-4.87,14.28-7.67,6.75-4.1,13.38-8.37,20.89-11a8.37,8.37,0,0,0,4.91-3.65q4.83-9.11,9.39-18.35c.73-1.48-.08-2.41-1.72-2.47C343.1,259.09,336,257.27,332.8,250.5ZM145.33,225.31c-3.6,3.38-3.41,3.23-.75,6.62a228.31,228.31,0,0,0,24.71,26.93c3.21,2.95,6.12,6.23,9.06,9.26,1.59-.57,1-2.71,2.82-2.8,2,.83,1.19,3.23,2.25,4.63,4.12,5.41,7.24,11.43,10.73,17.23,1.1,1.83,2.81,3.34,5.2,3.08,1.54-1.22.89-2.63.76-4-.27-2.75-1.19-5.61-.18-8.22,1.75-4.52,2-9.42,3.85-13.88,2.79-6.67,5.17-13.62,12.63-16.83a2.69,2.69,0,0,0,1.22-4.33c-1.66-2.24-2.66-4.82-4.12-7.13-4.34-6.89-8.88-13.66-13.18-20.58a9.41,9.41,0,0,0-5.94-4.34c-1.55-.42-3-1-4.61-1.39-6.93-1.63-13.35-4.73-20.06-7-5.23-1.75-10.78-2.56-15.74-5.06-2.62-1.33-5.29-2.18-7.8-.29s-1.39,4.66-1.35,7.12c0,1.47,1,3.11,0,4.37-1.67,2.23-2,4.83-2.76,7.36C140.42,222,140.38,222,145.33,225.31Zm139.51-1.2c1.6,2.29,1.6,2.34,3.41,2.65,12,2.07,24,4,35.73,7.31,8,2.26,16.23,3.83,24.35,5.75,2.85.67,5.22-.44,5.11-2.9-.35-7.92,0-15.93-2.46-23.63a4.23,4.23,0,0,0-3-3c-5.58-1.83-10.81-.65-16,1.33a21,21,0,0,1-4.65,1.24c-10.54,1.3-20.52,5-30.88,7.1C292.55,220.77,288.91,222.63,284.84,224.11Zm136.74,61.28a12.65,12.65,0,0,0,1.38,0c1.7-.21,3.86-.1,3.83-2.49,0-2.22-2-2.52-3.79-2.64a19.2,19.2,0,0,1-4.1-.4c-8.86-2.49-17.87-4.44-26.37-8.13-4.86-2.11-7-.6-7.19,4.72s1.59,10.61-1.17,15.91c-1.24,2.39.89,4.28,3.19,3.4,3.86-1.49,7.63-3.22,11.52-4.59C406.27,288.52,414.13,287.75,421.58,285.39Zm-87.1-1.9c-3,.31-4.12,3.22-6.42,4.44-8.81,4.66-17.42,9.72-26.48,13.91-1.95.91-4,1.67-4.65,4.22,1.89,1.6,3.87.78,5.64.34a65.5,65.5,0,0,1,14-1.95c4-.1,8,.13,12.07.09,2.34,0,4.54-1.07,3.7-3.68-1.56-4.87.44-8.74,2.48-12.74C335.53,286.69,336.37,285.2,334.48,283.49ZM156.26,161.22a2.82,2.82,0,0,0-2.08,2.09c-1.26,3.55-2.6,7.08-3.62,10.7-.53,1.87-.05,3.82,2.2,4.42,6.4,1.71,12.42,4.51,18.71,6.53,1.3.42,2.68,1.34,3.72-.17s0-2.52-.93-3.64c-5.26-6.35-11.15-12.17-16-18.89A2.07,2.07,0,0,0,156.26,161.22Zm-66.32,16a2.78,2.78,0,0,0,1.22,2.94c2.26,2,4.62,3.81,6.8,5.86,2.85,2.68,5.53,5.54,8.35,8.26,1.09,1.06,2.38,2,4,1.43s1.59-2.09,1.62-3.48a8.21,8.21,0,0,1,1.06-4c1.41-2.49.7-4.18-1.91-5.13-4.75-1.73-9.74-2.72-14.44-4.65C94.65,177.67,92.31,177.66,89.94,177.24Zm389,8.2c-1.88.13-3.09.22-3.56,1.54a2.62,2.62,0,0,0,.91,2.78c2.46,2.6,10.12,4.26,13.24,2.87,1.11-.49,2.07-1.12,2.15-2.44a2.46,2.46,0,0,0-2-2.55A48.73,48.73,0,0,0,478.93,185.44ZM51.6,44.84A2.49,2.49,0,0,0,54,43.23a3.18,3.18,0,0,0-1-3.73,75.21,75.21,0,0,0-7.91-5.41c-2.33-1.31-4.21.16-3.87,2.71C41.7,40.6,47.77,45.29,51.6,44.84Zm94.56,79c.57,2.16,1.45,4.27,4.26,4.54,1.43.14,6.22-3.37,6.37-4.64a2.23,2.23,0,0,0-.23-1.32c-.75-1.42-8.39-2.65-9.57-1.58A3.09,3.09,0,0,0,146.16,123.85ZM365.8,249.16c-1.84.45-2.09,1.79-1.94,3.23.2,1.92,1.31,2.93,3.27,2.61,1.42-.23,2.38-1.16,2.08-2.64A3.61,3.61,0,0,0,365.8,249.16ZM137.9,181.33c-.32-1.5-.9-3-2.79-2.77s-2.2,1.78-2.06,3.36.92,2.94,2.79,2.76S138.06,183,137.9,181.33ZM37.44,36.46c-2,1.81-1.53,2.89.48,3.79C39.06,38.38,39.06,38.38,37.44,36.46ZM249.2,220.09c-1.18,1.06-1.37,2.07-.24,3a1.19,1.19,0,0,0,2-.49C251.51,221.26,250.9,220.42,249.2,220.09Z"/></g></g></svg>