<svg xmlns="http://www.w3.org/2000/svg" viewBox="0 0 815.89 372.19"><defs><style>.cls-1,.cls-2{fill:#ffed00;stroke:#ffed00;}.cls-1{stroke-miterlimit:10;}.cls-2{stroke-linecap:round;stroke-linejoin:round;stroke-width:2px;}</style></defs><g id="Layer_2" data-name="Layer 2"><g id="Layer_1-2" data-name="Layer 1"><path class="cls-1" d="M376.35,157.43l-40.76-19.36-.74,1.45,10.5,6.38-11.55,2.81-.29,1.71,36.15,13.37-.45,1.24-38.66-12.32-.76,1.48,11.14,8.46-6.41.36-.2,1,9.8,3.14-.38,1.87c-21.3-4.06-42.79-7.33-63.87-12.34-81.05-19.25-151.32-60.31-217.7-109C43,33.67,24,19.35,5,5.09a35.48,35.48,0,0,1-3.78-4c1.69.08,2.62-.16,3,.19C17.67,14.38,36,15.28,52.58,20.13q69.9,20.37,140,39.93c20.55,5.74,41.44,10.25,61.94,16.13,12.13,3.47,25.45,6.21,35.36,13.3C318.19,109.7,345,132,372.33,153.43A48.92,48.92,0,0,1,376.35,157.43Z"/><path class="cls-1" d="M557.13,110.44c17.81-4.79,35.56-9.88,53.47-14.32,57.95-14.39,117-22.26,176.23-28.8,7-.77,13.69-3.93,20.54-6,1.91-.57,3.84-1.09,5.76-1.62.27.73.54,1.47.82,2.2-20.45,8.64-40.66,17.88-61.39,25.79-42.85,16.37-85.63,33-129.07,47.72C572.8,152.58,520.24,162,467.16,168.29a182.41,182.41,0,0,1-22.29,1.19c-6.25,0-8.56,2.8-8.7,8.66-.08,3.71-.78,7.4-1.2,11.09l-2.57-.51c2.68-11.76,5.28-23.53,8.17-35.24.33-1.33,2.1-2.73,3.52-3.3,14.24-5.65,28.54-11.14,43.44-15.59L479,140.52l76.57-30ZM441.05,166.22l.45,1.29c3.1-.63,6.29-1,9.23-2.06,1-.34,1.24-2.55,1.83-3.91-1.44-.23-3.25-1.12-4.27-.57A62,62,0,0,0,441.05,166.22Z"/><path class="cls-1" d="M428.64,224.48c2.65,6.26,6.51,12.29,7.74,18.81,4.31,22.85,7.93,45.85,11.38,68.85,2.09,13.88,3.39,27.87,4.72,41.75q-13.1-64.36-26.2-128.73Z"/><path class="cls-1" d="M380.9,170l9.76,3.08.89-1.39c-1.68-2-3.36-4-5.36-6.33,12.66,4.17,12.81,4.19,15.46,1.58,5,14.91,18.11,23,27.23,34.36,2.08,2.6,6.84,1.55,7,7.27.17,7.61-.18,8.85-7.18,7.48-1.1-3.2-1.34-6.33-3-8.27-8.63-10.21-16.18-21.67-28.86-27.62-3.43-1.61-7.3-2.31-10.69-4-2.22-1.11-3.94-3.23-5.89-4.9Z"/><path class="cls-1" d="M389.85,315.71c23.06,14.44,40.62,33.88,57.72,53.84Z"/><path class="cls-1" d="M557.13,110.44l-1.61.06-3.08-.83-.26-2,18.11-5.12Z"/><path class="cls-1" d="M412.68,228.34l-5-3.12c.79-.94,1.59-1.88,2.38-2.83l4.18,4Z"/><path class="cls-2" d="M814.89,60.24,789,69.91"/><path class="cls-2" d="M427.42,223.93l5,15.68"/><path class="cls-2" d="M437.49,265.35c3.46,17.69,7.39,35.3,10.22,53.09,2,12.62,2.53,25.47,3.71,38.22"/><path class="cls-2" d="M1.35,1,24.13,16.35"/><path class="cls-2" d="M389.93,317c22.86,14.64,40.36,35.15,59.2,54.19"/><path class="cls-2" d="M378.39,158.87,357,144"/><path class="cls-2" d="M328.94,149.05c4.35,2.12,8.55,4.61,13.06,6.28,10.15,3.77,20.45,7.13,30.68,10.66"/><path class="cls-2" d="M379.45,168.49c3.9,6.29,10,7.25,16.67,6.94"/><path class="cls-2" d="M404.16,180.71l14.17,13.7"/><path class="cls-2" d="M433.45,213.85l-7.77.2"/><path class="cls-2" d="M345.91,146.86l-7.7-2.07"/><path class="cls-2" d="M341.25,163.6l-8.54-3.93"/><path class="cls-2" d="M489.24,133.7,473,142.31"/><path class="cls-2" d="M439.89,163.15q-3,14.28-5.95,28.57"/><path class="cls-2" d="M347,168.81c-4.23-1.05-8.5-1.95-12.66-3.21a37.81,37.81,0,0,1-5.86-2.87"/><path class="cls-2" d="M572.38,104.43c-6.16.76-13.21-.62-16.44,7"/><path class="cls-2" d="M456.46,166.2l-17.89,2.61"/><path class="cls-2" d="M395.26,173.57l-11.1-9.49"/><path class="cls-2" d="M400.55,165.53l-1.73,10.9"/><path class="cls-2" d="M435,201.34c-.53,2.12-1.05,4.23-1.58,6.34"/><path class="cls-2" d="M410.7,225.44l2.46,1.68"/></g></g></svg>