<svg xmlns="http://www.w3.org/2000/svg" viewBox="0 0 766 146.9"><defs><style>.cls-1,.cls-2{fill:#ffed00;stroke:#ffed00;}.cls-1{stroke-miterlimit:10;}.cls-2{stroke-linecap:round;stroke-linejoin:round;stroke-width:2px;}</style></defs><g id="Layer_2" data-name="Layer 2"><g id="Layer_1-2" data-name="Layer 1"><path class="cls-1" d="M15.35,36.55C27,38,38.69,39.29,50.33,40.91c23.06,3.21,46.1,6.48,69.12,10,10.25,1.54,20.42,3.62,30.63,5.44,16.34,2.9,32.66,6,49,8.61,7.7,1.26,15.55,1.59,23.29,2.65,10.49,1.44,21,3.12,31.4,4.82,6.59,1.07,13.13,2.52,19.74,3.49a37.45,37.45,0,0,1,17,7.2c4.25,3.12,8.23,6.61,12.51,10.09-6.58-.66-12.82-1.38-19.08-1.8-1.07-.07-2.91,1-3.15,1.81s.58,2.6,1.42,3.49a10.2,10.2,0,0,0,3.58,2c3.82,1.63,7.89,2.83,8.72,7.88a3.45,3.45,0,0,0,2.36,2.17c4.37.61,5.81,4.12,7.8,7.2,1.72,2.67,3.73,5.16,5.43,7.84,1.09,1.72,1.79,3.69,2.79,5.48s2,4.09,3.56,5.65c3.08,3.16,3.06,2.88.15,6.35-3.38,4-7.17,5.8-12.62,5-16.85-2.6-33.77-4.71-50.62-7.25-8-1.2-16.06-2.3-23.76-4.59-20.08-6-40.18-12.07-59.91-19.1-44.29-15.77-85.31-38.4-126-61.55Q32,47.05,20.36,40.21a54.55,54.55,0,0,1-4.95-3.71Z"/><path class="cls-1" d="M629.06,37l15.58-4.92.3,1.25.63-.39-1-.82c14.56-4.39,29-9.24,43.71-13.07C712.82,12.63,737.52,6.89,762.15.9a3.24,3.24,0,0,1,3,.86c-2.61,1.69-5.14,3.55-7.85,5.05-23.8,13.15-47.51,26.48-71.49,39.3-44.36,23.72-89.65,45.43-137.2,62.12-3.88,1.36-7.52,3.18-11.69,0-1.51-1.15-4.55,0-6.75-.56a45.76,45.76,0,0,1-10.34-3.33c-3.46-1.76-3.2-3.21-1.54-6.73A43,43,0,0,1,537.4,77.55c1.66-.9,4.83-2.08,2.1-5.18l0,.08c4.52-2.2,9-4.58,13.58-6.56,11.19-4.8,22.28-10,33.79-13.82,4.18-1.4,8.34-5.19,13.52-3a2.18,2.18,0,0,0,1.9-.49c7.08-7,16.72-7.93,25.5-10.91l-.49,1.85,2.37-.43C629.5,38.41,629.28,37.69,629.06,37Z"/><path class="cls-1" d="M457.81,111.42l7-5c-.59,4-3.38,5.26-6.33,6.31h0Z"/><path class="cls-1" d="M6.57,31.59l8.78,5,.06,0L6.64,31.55Z"/><path class="cls-1" d="M442.83,119l-4.64,3.27-.67-1.44,5.37-1.75Z"/><path class="cls-1" d="M313.66,105.51l4.19,1-.13.56-4-1Z"/><path class="cls-1" d="M528.5,76.92l4.1-2.39.46,1.18-4.6,1.14Z"/><path class="cls-1" d="M528.46,76.85l-3.85,2.6L524,78.38l4.46-1.46Z"/><path class="cls-1" d="M442.89,119.1l2.51-2.73.66.75-3.23,1.9Z"/><path class="cls-1" d="M437,131.05c.06.42.26.89.13,1.24s-.66.27-1,.39c0-.42-.22-.89-.08-1.24S436.61,131.17,437,131.05Z"/><path class="cls-1" d="M457.83,134.07l6-1.43,0-.07-6,1.43Z"/><path class="cls-1" d="M486.66,126.73l4.65-1.74,0-.08-4.65,1.74Z"/><path class="cls-1" d="M326.33,107.82l-.65,0,.18-.72a1.76,1.76,0,0,1,.59.26C326.51,107.39,326.38,107.65,326.33,107.82Z"/><path class="cls-1" d="M474.51,129.44l-4.64,1.75,0,.07,4.65-1.74Z"/><path class="cls-1" d="M340.1,116.55c0-.19-.07-.46,0-.55s.4-.13.61-.19v.86Z"/><path class="cls-1" d="M526.44,114.82a4,4,0,0,1-1,.75,8.88,8.88,0,0,1-1.64.23,8.38,8.38,0,0,1,1.44-.85,4,4,0,0,1,1.26,0Z"/><path class="cls-1" d="M514.13,119.07a4.11,4.11,0,0,1,1-.82,8.92,8.92,0,0,1,1.65-.32,9.48,9.48,0,0,1-1.39.91,4.68,4.68,0,0,1-1.26.16Z"/><path class="cls-1" d="M458.46,112.69c-.08.2-.11.47-.26.6-.56.49-1.17.94-1.76,1.4.39-.72.78-1.44,1.16-2.17a8,8,0,0,0,.82.17Z"/><path class="cls-1" d="M457.8,134l-1.86.33,1.89-.26Z"/><path class="cls-1" d="M6.64,31.55,2.92,29.23l-.07.05,3.72,2.31Z"/><path class="cls-1" d="M458.42,112.69a8,8,0,0,1-.82-.17l-1-.81,1.2-.29Z"/><polygon class="cls-1" points="326.28 110.36 325.75 110.39 325.92 109.99 326.28 110.36"/><path class="cls-1" d="M365,128.9l1.65.75-1.59-.8Z"/><polygon class="cls-1" points="333.99 113.38 333.75 113.76 333.49 113.39 333.99 113.38"/><path class="cls-1" d="M539.5,72.37l-.94.28a1.79,1.79,0,0,1,.42-.2,3.49,3.49,0,0,1,.56,0Z"/><path class="cls-1" d="M534.23,112.49l.92-.33a1.44,1.44,0,0,1-.4.22,3.57,3.57,0,0,1-.57,0Z"/><path class="cls-1" d="M534.18,112.41l-1,.25a1.63,1.63,0,0,1,.45-.2,3,3,0,0,1,.59,0Z"/><path class="cls-1" d="M477.6,128.83l.95-.3a2.35,2.35,0,0,1-.42.21,5.33,5.33,0,0,1-.57,0Z"/><path class="cls-1" d="M466.88,132l3-.7,0-.07-3,.69Z"/><path class="cls-1" d="M463.83,132.64l3.05-.68,0-.08-3,.69Z"/><path class="cls-1" d="M486.62,126.65l-.95.22a2.23,2.23,0,0,1,.43-.16,3.54,3.54,0,0,1,.56,0Z"/><path class="cls-1" d="M491.31,125l.95-.26a2,2,0,0,1-.43.18,3.49,3.49,0,0,1-.56,0Z"/><path class="cls-1" d="M2.92,29.23l-.78-.56.71.61Z"/><path class="cls-1" d="M514.1,119l-1,.21a2.19,2.19,0,0,1,.43-.15,2.53,2.53,0,0,1,.55,0Z"/><path class="cls-1" d="M526.49,114.9l.94-.28a2.26,2.26,0,0,1-.42.19,3.6,3.6,0,0,1-.57,0Z"/><path class="cls-1" d="M474.55,129.52l3.05-.69,0-.07-3.05.68Z"/><path class="cls-1" d="M362.65,126.86l-.77-.57.71.61Z"/><path class="cls-1" d="M365.07,128.85l-2.42-2-.06,0,2.42,2Z"/><path class="cls-2" d="M764.59,1,745.68,8.58"/><path class="cls-2" d="M30.37,42.26C25,40,19.71,37.33,14.14,35.66,9.05,34.14,5.6,30.21,1,28.1"/><path class="cls-2" d="M304.36,93.68l-13-5.25"/><path class="cls-2" d="M479.75,128.6c-7.32,1.8-14.63,3.65-22,5.37a13.48,13.48,0,0,1-3.52-.09"/><path class="cls-2" d="M650,33.36c-6.35-3.34-6-1.26-8.7,3.62"/><path class="cls-2" d="M626.7,38.46c-3.36.11-2.46,3.1-3.31,4.91"/><path class="cls-2" d="M546.92,74.18c-2.66-3.79-6.28-1.74-9.59-1.58"/><path class="cls-2" d="M534,74.65l-11,4.47"/><path class="cls-2" d="M447,116.48l-10,6.15"/><path class="cls-2" d="M368.22,130.36l-7.44-4.64"/><path class="cls-2" d="M319.61,107.31l-8.08-1.94"/><path class="cls-2" d="M493.49,124.77l-9.06,2.1"/><path class="cls-2" d="M466.43,106.89c-3.87,2.55-8.46,4.26-10.66,8.84"/><path class="cls-2" d="M635.94,38.54,630,36.41"/><path class="cls-2" d="M517.94,117.81l-6,1.4"/><path class="cls-2" d="M528.67,114.68l-6,1.4"/><path class="cls-2" d="M536.37,112.25l-4.36.38"/></g></g></svg>